<svg xmlns="http://www.w3.org/2000/svg" viewBox="0 0 1584 396" width="1584" height="396">
  <defs>
    <linearGradient id="goldH" x1="0" y1="0" x2="1" y2="0">
      <stop offset="0%" stop-color="#f2dc88"/>
      <stop offset="50%" stop-color="#c9a84c"/>
      <stop offset="100%" stop-color="#9e7830"/>
    </linearGradient>
    <linearGradient id="goldV" x1="0" y1="0" x2="0" y2="1">
      <stop offset="0%" stop-color="#f2dc88"/>
      <stop offset="100%" stop-color="#c9a84c"/>
    </linearGradient>
    <linearGradient id="goldD" x1="0" y1="0" x2="1" y2="1">
      <stop offset="0%" stop-color="#f2dc88"/>
      <stop offset="55%" stop-color="#c9a84c"/>
      <stop offset="100%" stop-color="#9e7830"/>
    </linearGradient>
    <radialGradient id="glowRight" cx="83%" cy="50%" r="35%">
      <stop offset="0%" stop-color="#c9a84c" stop-opacity="0.13"/>
      <stop offset="100%" stop-color="#c9a84c" stop-opacity="0"/>
    </radialGradient>
    <radialGradient id="glowLeft" cx="14%" cy="50%" r="22%">
      <stop offset="0%" stop-color="#4a9eda" stop-opacity="0.07"/>
      <stop offset="100%" stop-color="#4a9eda" stop-opacity="0"/>
    </radialGradient>
    <pattern id="dots" x="0" y="0" width="24" height="24" patternUnits="userSpaceOnUse">
      <circle cx="12" cy="12" r="1" fill="#c9a84c" opacity="0.13"/>
    </pattern>
    <filter id="glow" x="-20%" y="-20%" width="140%" height="140%">
      <feGaussianBlur in="SourceGraphic" stdDeviation="3" result="blur"/>
      <feMerge><feMergeNode in="blur"/><feMergeNode in="SourceGraphic"/></feMerge>
    </filter>
    <clipPath id="rightHexClip">
      <polygon points="1320,48 1449.9,123 1449.9,273 1320,348 1190.1,273 1190.1,123"/>
    </clipPath>
  </defs>

  <!-- ── FONDO ── -->
  <rect width="1584" height="396" fill="#0a1628"/>
  <rect width="1584" height="396" fill="url(#dots)"/>
  <rect width="1584" height="396" fill="url(#glowRight)"/>
  <rect width="1584" height="396" fill="url(#glowLeft)"/>
  <rect x="0" y="393" width="1584" height="3" fill="url(#goldH)" opacity="0.65"/>
  <rect x="0" y="0" width="1584" height="1.5" fill="url(#goldH)" opacity="0.25"/>

  <!-- ── LOGO MARK (izquierda) ── -->
  <polygon points="200,133 256.3,165.5 256.3,230.5 200,263 143.7,230.5 143.7,165.5" fill="#0d1f3c"/>
  <polygon points="200,133 256.3,165.5 256.3,230.5 200,263 143.7,230.5 143.7,165.5" fill="none" stroke="url(#goldD)" stroke-width="2.5"/>
  <polygon points="200,143 246,169 246,227 200,253 154,227 154,169" fill="none" stroke="#c9a84c" stroke-width="0.6" opacity="0.2"/>
  <circle cx="200"   cy="133"   r="3.2" fill="#c9a84c"/>
  <circle cx="256.3" cy="165.5" r="3.2" fill="#c9a84c"/>
  <circle cx="256.3" cy="230.5" r="3.2" fill="#c9a84c"/>
  <circle cx="200"   cy="263"   r="3.2" fill="#c9a84c"/>
  <circle cx="143.7" cy="230.5" r="3.2" fill="#c9a84c"/>
  <circle cx="143.7" cy="165.5" r="3.2" fill="#c9a84c"/>
  <!-- GG monogram -->
  <text x="200" y="213" text-anchor="middle"
        font-family="Georgia,'Times New Roman',serif"
        font-weight="700" font-size="45" letter-spacing="-3"
        fill="url(#goldD)" filter="url(#glow)">GG</text>
  <!-- Divider mini -->
  <line x1="160" y1="222" x2="240" y2="222" stroke="#c9a84c" stroke-width="0.8" opacity="0.35"/>
  <!-- Mini bar chart -->
  <rect x="164" y="231" width="7" height="10" rx="1.2" fill="#c9a84c" opacity="0.4"/>
  <rect x="174" y="226" width="7" height="15" rx="1.2" fill="#c9a84c" opacity="0.55"/>
  <rect x="184" y="229" width="7" height="12" rx="1.2" fill="#c9a84c" opacity="0.48"/>
  <rect x="194" y="223" width="7" height="18" rx="1.2" fill="url(#goldV)" opacity="0.9"/>
  <rect x="204" y="225" width="7" height="16" rx="1.2" fill="#c9a84c" opacity="0.65"/>
  <rect x="214" y="221" width="7" height="20" rx="1.2" fill="#c9a84c" opacity="0.6"/>
  <!-- Mini sparkline -->
  <polyline points="167.5,231 177.5,226 187.5,229 197.5,223 207.5,225 217.5,221"
            stroke="#f2dc88" stroke-width="1.1" fill="none" stroke-linecap="round" opacity="0.7"/>
  <circle cx="217.5" cy="221" r="2" fill="#f2dc88" opacity="0.9"/>

  <!-- ── CONTENIDO PRINCIPAL ── -->
  <!-- Nombre -->
  <text x="318" y="152"
        font-family="Georgia,'Times New Roman',serif"
        font-weight="700" font-size="70" letter-spacing="-1"
        fill="url(#goldD)" filter="url(#glow)">Gustavo Giraldo</text>

  <!-- Título -->
  <text x="322" y="196"
        font-family="'Courier New',Courier,monospace"
        font-size="21" letter-spacing="3.5"
        fill="#8a9bb0">ANALISTA DE DATOS  ·  FREELANCE</text>

  <!-- Línea separadora -->
  <line x1="320" y1="216" x2="840" y2="216" stroke="#c9a84c" stroke-width="0.9" opacity="0.4"/>
  <circle cx="320" cy="216" r="3" fill="#c9a84c" opacity="0.6"/>
  <circle cx="840" cy="216" r="3" fill="#c9a84c" opacity="0.4"/>

  <!-- Ubicación -->
  <text x="322" y="242"
        font-family="'Courier New',Courier,monospace"
        font-size="14" letter-spacing="1.5"
        fill="#5a8aaa">Medellín, Colombia  ·  Disponible Remoto</text>

  <!-- Badges de habilidades -->
  <rect x="320" y="260" width="102" height="28" rx="14" fill="none" stroke="#c9a84c" stroke-width="1" opacity="0.65"/>
  <text x="371" y="278" text-anchor="middle" font-family="Arial,sans-serif" font-size="12.5" font-weight="600" fill="#c9a84c">Power BI</text>

  <rect x="432" y="260" width="60" height="28" rx="14" fill="none" stroke="#c9a84c" stroke-width="1" opacity="0.65"/>
  <text x="462" y="278" text-anchor="middle" font-family="Arial,sans-serif" font-size="12.5" font-weight="600" fill="#c9a84c">DAX</text>

  <rect x="502" y="260" width="178" height="28" rx="14" fill="none" stroke="#c9a84c" stroke-width="1" opacity="0.65"/>
  <text x="591" y="278" text-anchor="middle" font-family="Arial,sans-serif" font-size="12.5" font-weight="600" fill="#c9a84c">Business Intelligence</text>

  <rect x="690" y="260" width="140" height="28" rx="14" fill="none" stroke="#c9a84c" stroke-width="1" opacity="0.65"/>
  <text x="760" y="278" text-anchor="middle" font-family="Arial,sans-serif" font-size="12.5" font-weight="600" fill="#c9a84c">Excel Avanzado</text>

  <rect x="840" y="260" width="122" height="28" rx="14" fill="none" stroke="#c9a84c" stroke-width="1" opacity="0.35"/>
  <text x="901" y="278" text-anchor="middle" font-family="Arial,sans-serif" font-size="12.5" font-weight="600" fill="#c9a84c" opacity="0.55">Power Query</text>

  <!-- URL del sitio -->
  <text x="322" y="338"
        font-family="'Courier New',Courier,monospace"
        font-size="15" letter-spacing="0.8"
        fill="#c9a84c" opacity="0.65">gustavo-giraldo-consultores.netlify.app</text>

  <!-- ── SEPARADOR CENTRAL ── -->
  <line x1="1060" y1="76" x2="1060" y2="320" stroke="#c9a84c" stroke-width="0.5" opacity="0.18"/>
  <circle cx="1060" cy="128" r="3" fill="#c9a84c" opacity="0.28"/>
  <circle cx="1060" cy="198" r="4" fill="#c9a84c" opacity="0.38"/>
  <circle cx="1060" cy="268" r="3" fill="#c9a84c" opacity="0.28"/>
  <line x1="1063" y1="128" x2="1190" y2="148" stroke="#c9a84c" stroke-width="0.5" opacity="0.12"/>
  <line x1="1064" y1="198" x2="1190" y2="198" stroke="#c9a84c" stroke-width="0.8" opacity="0.18"/>
  <line x1="1063" y1="268" x2="1190" y2="248" stroke="#c9a84c" stroke-width="0.5" opacity="0.12"/>

  <!-- ── HEXÁGONO DECORATIVO DERECHO ── -->
  <ellipse cx="1320" cy="198" rx="185" ry="185" fill="#c9a84c" opacity="0.035"/>
  <polygon points="1320,48 1449.9,123 1449.9,273 1320,348 1190.1,273 1190.1,123" fill="#0d1f3c" opacity="0.75"/>
  <polygon points="1320,48 1449.9,123 1449.9,273 1320,348 1190.1,273 1190.1,123" fill="url(#dots)" clip-path="url(#rightHexClip)" opacity="0.6"/>
  <polygon points="1320,68 1432,133 1432,263 1320,328 1208,263 1208,133" fill="none" stroke="#c9a84c" stroke-width="0.8" opacity="0.14"/>
  <polygon points="1320,48 1449.9,123 1449.9,273 1320,348 1190.1,273 1190.1,123" fill="none" stroke="url(#goldD)" stroke-width="2"/>
  <circle cx="1320"   cy="48"  r="4" fill="#c9a84c"/>
  <circle cx="1449.9" cy="123" r="4" fill="#c9a84c"/>
  <circle cx="1449.9" cy="273" r="4" fill="#c9a84c"/>
  <circle cx="1320"   cy="348" r="4" fill="#c9a84c"/>
  <circle cx="1190.1" cy="273" r="4" fill="#c9a84c"/>
  <circle cx="1190.1" cy="123" r="4" fill="#c9a84c"/>

  <!-- Gráfico de barras dentro del hexágono -->
  <g clip-path="url(#rightHexClip)">
    <rect x="1235" y="245" width="20" height="45"  rx="2.5" fill="#c9a84c" opacity="0.35"/>
    <rect x="1263" y="220" width="20" height="70"  rx="2.5" fill="#c9a84c" opacity="0.50"/>
    <rect x="1291" y="233" width="20" height="57"  rx="2.5" fill="#c9a84c" opacity="0.43"/>
    <rect x="1319" y="200" width="20" height="90"  rx="2.5" fill="url(#goldV)" opacity="0.85"/>
    <rect x="1347" y="212" width="20" height="78"  rx="2.5" fill="#c9a84c" opacity="0.58"/>
    <rect x="1375" y="190" width="20" height="100" rx="2.5" fill="#c9a84c" opacity="0.52"/>
  </g>
  <!-- Línea de tendencia -->
  <polyline points="1245,245 1273,220 1301,233 1329,200 1357,212 1385,190"
            stroke="#f2dc88" stroke-width="1.8" fill="none"
            stroke-linecap="round" stroke-linejoin="round" opacity="0.82"/>
  <circle cx="1385" cy="190" r="4.5" fill="#f2dc88" opacity="0.9"/>
  <circle cx="1329" cy="200" r="3"   fill="#f2dc88" opacity="0.65"/>
  <!-- Label sutil -->
  <text x="1320" y="168" text-anchor="middle"
        font-family="'Courier New',Courier,monospace"
        font-size="10" letter-spacing="5"
        fill="#c9a84c" opacity="0.22">ANÁLISIS</text>

  <!-- ── HEXÁGONOS DECORATIVOS FONDO ── -->
  <polygon points="1530,55 1558,71 1558,103 1530,119 1502,103 1502,71" fill="none" stroke="#c9a84c" stroke-width="0.8" opacity="0.07"/>
  <polygon points="1562,98 1581,109 1581,131 1562,142 1543,131 1543,109" fill="none" stroke="#c9a84c" stroke-width="0.6" opacity="0.05"/>
  <polygon points="48,298 70,311 70,337 48,350 26,337 26,311" fill="none" stroke="#c9a84c" stroke-width="0.8" opacity="0.07"/>
  <polygon points="82,328 99,338 99,358 82,368 65,358 65,338" fill="none" stroke="#c9a84c" stroke-width="0.6" opacity="0.05"/>
</svg>
